<?xml version="1.0" standalone="no"?>
<!DOCTYPE svg PUBLIC "-//W3C//DTD SVG 20010904//EN"
 "http://www.w3.org/TR/2001/REC-SVG-20010904/DTD/svg10.dtd">
<svg version="1.0" xmlns="http://www.w3.org/2000/svg"
 width="3060.000000pt" height="3044.000000pt" viewBox="0 0 3060.000000 3044.000000"
 preserveAspectRatio="xMidYMid meet">
    <g transform="translate(0.000000,3044.000000) scale(0.100000,-0.100000)"
    fill="#000000" stroke="none">
        <path fill="#134675" d="M14735 29824 c-11 -3 -38 -12 -59 -20 -22 -9 -87 -18 -145 -21 -74
        -4 -120 -11 -151 -25 -25 -11 -72 -22 -105 -25 -33 -3 -76 -14 -95 -23 -19
        -10 -60 -21 -90 -25 -30 -4 -68 -15 -85 -25 -16 -9 -50 -20 -75 -24 -24 -4
        -52 -14 -62 -23 -9 -8 -38 -19 -63 -24 -26 -5 -58 -18 -72 -29 -14 -11 -36
        -20 -48 -20 -12 0 -34 -9 -49 -21 -14 -11 -43 -25 -63 -31 -21 -6 -48 -19 -62
        -29 -13 -11 -32 -19 -42 -19 -9 0 -30 -10 -46 -23 -15 -12 -39 -29 -53 -36
        -53 -26 -87 -47 -115 -69 -15 -12 -33 -22 -40 -22 -7 0 -28 -12 -47 -27 -50
        -39 -74 -55 -107 -73 -16 -8 -53 -31 -83 -51 -94 -63 -110 -74 -127 -84 -80
        -49 -120 -76 -130 -89 -8 -9 -19 -16 -25 -16 -6 0 -36 -18 -66 -40 -30 -22
        -69 -47 -87 -55 -17 -8 -53 -29 -78 -47 -26 -18 -62 -42 -80 -53 -18 -11 -52
        -33 -75 -50 -24 -16 -58 -39 -76 -50 -48 -30 -87 -58 -106 -77 -10 -10 -26
        -18 -36 -18 -10 0 -29 -11 -42 -25 -13 -14 -29 -25 -36 -25 -6 0 -18 -7 -25
        -17 -8 -9 -27 -22 -44 -30 -16 -7 -41 -22 -55 -32 -49 -36 -143 -96 -178 -114
        -21 -11 -57 -36 -82 -57 -25 -20 -55 -40 -67 -44 -12 -4 -48 -27 -79 -51 -32
        -25 -63 -45 -70 -45 -7 0 -26 -11 -42 -25 -17 -14 -35 -25 -41 -25 -7 0 -14
        -7 -18 -16 -3 -9 -24 -24 -47 -35 -23 -10 -59 -32 -81 -49 -22 -16 -53 -37
        -70 -45 -16 -9 -50 -31 -75 -50 -25 -19 -58 -41 -75 -48 -16 -8 -36 -21 -44
        -30 -7 -10 -19 -17 -26 -17 -6 0 -20 -9 -30 -20 -10 -11 -27 -22 -39 -26 -11
        -3 -31 -15 -43 -27 -24 -21 -35 -28 -104 -66 -24 -13 -47 -28 -50 -33 -8 -12
        -71 -51 -116 -72 -18 -8 -33 -19 -33 -25 0 -6 -19 -19 -42 -30 -24 -11 -61
        -33 -83 -50 -22 -17 -53 -36 -70 -44 -16 -8 -36 -21 -44 -30 -7 -10 -19 -17
        -26 -17 -7 0 -19 -7 -26 -17 -8 -9 -27 -22 -44 -30 -16 -7 -50 -29 -75 -49
        -25 -19 -62 -42 -82 -51 -21 -9 -38 -20 -38 -24 0 -5 -17 -18 -37 -29 -76 -41
        -108 -62 -116 -76 -4 -8 -13 -14 -19 -14 -7 0 -28 -11 -47 -23 -20 -13 -49
        -32 -65 -43 -16 -10 -36 -23 -45 -29 -85 -52 -121 -78 -121 -85 0 -5 -12 -13
        -27 -16 -16 -4 -37 -14 -48 -24 -11 -9 -42 -31 -70 -48 -27 -17 -63 -41 -80
        -52 -16 -11 -64 -42 -105 -69 -41 -26 -88 -56 -104 -67 -16 -10 -44 -28 -62
        -39 -18 -11 -57 -37 -87 -57 -30 -21 -59 -38 -64 -38 -5 0 -18 -9 -28 -20 -10
        -11 -27 -22 -39 -26 -11 -4 -50 -29 -86 -55 -35 -27 -69 -49 -76 -49 -6 0 -19
        -9 -29 -20 -10 -11 -24 -20 -31 -20 -7 0 -25 -10 -41 -23 -15 -12 -39 -28 -53
        -35 -14 -7 -45 -28 -70 -47 -25 -19 -58 -41 -75 -50 -16 -8 -55 -33 -85 -55
        -30 -22 -59 -40 -63 -40 -5 0 -21 -9 -35 -21 -37 -29 -146 -100 -190 -124 -68
        -38 -112 -67 -112 -75 0 -4 -17 -15 -38 -23 -21 -8 -44 -22 -51 -31 -8 -9 -19
        -16 -25 -16 -7 0 -23 -11 -36 -25 -13 -14 -31 -25 -41 -25 -10 0 -21 -5 -24
        -10 -7 -11 -56 -46 -120 -85 -64 -40 -161 -104 -186 -124 -15 -12 -35 -24 -45
        -28 -11 -4 -41 -22 -69 -40 -27 -18 -77 -51 -110 -72 -33 -22 -72 -49 -87 -60
        -14 -12 -31 -21 -38 -21 -7 0 -24 -9 -38 -21 -83 -63 -106 -79 -117 -79 -7 0
        -24 -10 -38 -22 -55 -47 -85 -67 -111 -74 -15 -3 -30 -13 -33 -21 -3 -7 -20
        -20 -37 -28 -31 -15 -70 -40 -169 -107 -30 -21 -59 -38 -64 -38 -6 0 -16 -7
        -24 -16 -7 -8 -38 -32 -68 -51 -58 -38 -131 -105 -131 -121 0 -5 -13 -29 -30
        -53 -16 -24 -30 -54 -30 -67 0 -12 -9 -39 -20 -59 -27 -51 -28 -166 -1 -225
        11 -24 22 -55 25 -69 3 -14 18 -42 33 -62 16 -20 40 -52 54 -72 27 -35 136
        -115 159 -115 7 0 28 -9 46 -21 28 -17 51 -20 148 -22 102 -1 119 1 143 19 15
        11 41 24 57 28 15 4 40 15 55 25 14 10 44 29 66 43 22 13 51 32 65 41 109 73
        131 87 139 87 4 0 20 11 35 25 15 14 33 25 40 25 12 0 58 32 114 80 13 11 30
        20 39 20 8 0 39 20 67 45 29 25 60 45 69 45 8 0 28 10 44 23 45 36 108 77 119
        77 6 0 19 9 29 20 10 12 37 30 59 41 60 29 84 44 110 68 12 11 26 21 32 21 5
        0 34 18 64 40 30 22 69 47 85 55 17 9 50 31 75 50 25 19 62 42 83 51 20 9 37
        20 37 24 0 8 44 37 112 75 44 24 153 95 190 124 14 12 30 21 35 21 4 0 33 18
        63 40 30 22 70 47 88 56 19 8 56 32 82 52 26 20 72 51 100 67 29 17 61 38 71
        47 10 10 33 24 51 33 32 15 137 84 190 124 14 12 30 21 36 21 5 0 17 9 27 20
        10 11 24 20 30 20 7 0 29 14 50 30 21 17 42 30 47 30 6 0 37 20 69 45 33 25
        63 45 67 45 4 0 32 18 62 40 30 22 70 47 89 56 19 9 59 36 89 60 29 24 60 44
        67 44 7 0 27 11 43 25 17 14 33 25 37 25 4 0 20 11 37 25 16 14 35 25 42 25 7
        0 21 10 32 21 10 12 28 25 39 30 21 10 69 41 158 102 30 20 58 37 64 37 5 0
        20 11 33 25 13 14 28 25 32 25 5 0 24 11 42 25 18 14 37 25 43 25 5 0 20 11
        33 25 13 14 30 25 38 25 9 0 40 19 71 43 30 23 67 49 82 57 15 8 51 31 81 51
        29 20 75 49 101 65 27 16 61 39 77 52 15 12 34 22 42 22 8 0 25 11 38 25 13
        14 28 25 33 25 5 0 22 11 39 25 16 14 35 25 42 25 7 0 23 11 36 25 13 14 28
        25 33 25 6 0 18 7 28 16 10 9 31 23 48 32 16 10 54 33 83 53 82 55 109 73 127
        84 68 41 99 62 117 78 12 10 35 26 52 35 17 9 49 27 71 40 23 12 41 26 41 31
        0 5 12 13 28 19 15 5 54 30 86 56 33 25 67 46 77 46 10 0 21 4 24 10 3 5 29
        25 58 43 29 18 65 42 81 53 39 25 93 58 139 84 20 11 37 25 37 30 0 5 10 12
        23 16 24 7 106 62 122 81 6 7 21 17 35 23 14 6 43 23 66 38 23 15 69 45 104
        67 34 22 74 50 89 61 14 12 36 24 47 28 12 4 29 15 39 26 10 11 23 20 30 20 6
        0 22 11 35 25 13 14 30 25 38 25 13 0 25 8 100 67 16 12 40 25 54 28 14 4 36
        18 49 31 12 13 27 24 33 24 6 0 36 18 66 40 30 22 69 47 86 54 17 8 36 22 44
        30 7 9 18 16 24 16 7 0 23 11 36 25 13 14 28 25 34 25 12 0 82 44 128 79 14
        12 31 21 36 21 5 0 38 23 72 50 34 28 70 50 80 50 9 0 27 11 40 25 13 14 27
        25 32 25 5 0 21 8 36 18 75 52 110 71 138 77 18 3 40 15 50 26 9 10 27 19 39
        19 11 0 36 11 55 25 19 14 46 25 60 25 14 0 41 11 60 25 19 14 46 25 61 25 15
        0 51 11 81 25 29 14 68 25 86 25 18 0 50 9 71 19 23 12 77 24 137 30 54 6 124
        18 154 26 42 11 114 15 303 15 211 0 260 -3 325 -19 43 -10 113 -22 156 -26
        43 -3 95 -14 115 -24 20 -10 61 -21 91 -24 30 -3 73 -15 95 -26 21 -12 53 -21
        70 -21 17 0 46 -11 65 -25 19 -14 47 -25 66 -25 17 0 42 -8 55 -19 14 -10 41
        -23 62 -29 20 -6 49 -20 63 -31 15 -12 34 -21 42 -21 9 0 23 -7 33 -16 20 -18
        63 -43 125 -73 23 -10 45 -24 49 -30 3 -6 23 -20 43 -31 51 -28 72 -41 105
        -67 16 -13 35 -23 43 -23 8 0 22 -8 32 -17 22 -22 113 -83 124 -83 4 0 34 -19
        65 -43 32 -24 65 -46 74 -50 9 -3 44 -26 77 -51 33 -25 67 -46 75 -46 8 0 20
        -7 28 -16 16 -20 113 -84 126 -84 6 0 17 -7 24 -16 7 -9 40 -34 74 -55 33 -21
        69 -46 80 -54 35 -27 96 -65 104 -65 5 0 24 -12 44 -27 32 -25 106 -75 192
        -128 55 -35 90 -58 100 -69 13 -14 114 -76 124 -76 4 0 18 -11 31 -25 13 -14
        27 -25 32 -25 9 0 93 -55 153 -99 22 -17 54 -37 71 -45 17 -7 35 -19 38 -25 4
        -6 22 -18 39 -26 18 -8 52 -30 77 -50 25 -19 59 -41 75 -48 17 -8 36 -21 44
        -30 7 -10 18 -17 23 -17 6 0 23 -10 38 -22 15 -13 42 -32 61 -43 18 -11 41
        -25 51 -31 10 -6 26 -18 35 -27 10 -8 29 -20 43 -26 14 -6 50 -29 80 -51 30
        -22 59 -40 64 -40 4 0 23 -12 42 -27 67 -56 92 -73 107 -73 8 0 21 -7 28 -16
        15 -18 115 -84 128 -84 4 0 20 -10 34 -22 55 -47 85 -67 111 -74 15 -3 30 -12
        32 -19 5 -13 96 -75 109 -75 4 0 23 -13 42 -30 18 -16 40 -30 47 -30 7 0 21
        -9 31 -20 10 -11 23 -20 30 -20 6 0 22 -11 35 -25 13 -14 29 -25 36 -25 7 0
        26 -11 42 -25 17 -14 34 -25 40 -25 5 0 16 -7 23 -17 8 -9 28 -22 44 -30 17
        -7 50 -29 75 -48 25 -20 60 -42 78 -51 19 -8 56 -32 82 -52 53 -40 147 -103
        215 -142 24 -14 68 -42 98 -62 30 -21 59 -38 64 -38 6 0 16 -7 23 -15 16 -19
        98 -75 109 -75 5 0 31 -18 57 -41 27 -22 67 -49 89 -60 22 -11 65 -37 95 -59
        30 -21 60 -39 66 -39 6 -1 21 -12 34 -26 13 -14 28 -25 34 -25 6 0 36 -18 66
        -40 30 -22 69 -47 85 -55 17 -9 50 -31 75 -50 25 -20 61 -42 80 -51 19 -9 39
        -22 43 -30 4 -8 14 -14 21 -14 7 0 23 -11 36 -25 13 -14 28 -25 34 -25 6 0 36
        -18 66 -40 30 -22 70 -47 89 -56 19 -9 59 -36 89 -60 29 -24 61 -44 69 -44 8
        0 38 -20 66 -44 29 -24 63 -47 77 -51 14 -4 34 -15 45 -25 11 -9 48 -34 83
        -55 34 -21 62 -42 62 -46 0 -5 15 -15 33 -24 49 -22 97 -52 121 -73 11 -11 31
        -23 42 -26 12 -4 29 -15 39 -26 10 -11 23 -20 30 -20 6 0 22 -11 35 -25 13
        -14 28 -25 34 -25 6 0 36 -18 66 -40 30 -22 69 -47 85 -55 17 -9 50 -31 75
        -50 25 -19 59 -41 75 -48 17 -8 36 -21 44 -30 7 -10 18 -17 23 -17 6 0 23 -10
        38 -22 15 -13 40 -31 56 -40 48 -29 67 -42 97 -65 16 -13 33 -23 39 -23 5 0
        22 -9 36 -21 34 -26 144 -99 183 -120 16 -9 36 -22 44 -29 8 -7 28 -20 44 -29
        16 -9 55 -33 85 -53 31 -21 60 -38 64 -38 5 0 19 -11 32 -25 13 -14 29 -25 36
        -25 7 0 26 -11 42 -25 17 -14 34 -25 39 -25 5 0 20 -11 33 -25 13 -14 30 -25
        38 -25 7 0 26 -9 40 -21 83 -64 106 -79 117 -79 7 0 19 -7 26 -17 8 -9 28 -22
        44 -30 17 -7 50 -29 75 -48 25 -19 54 -39 65 -44 11 -5 29 -18 39 -30 11 -11
        27 -21 37 -21 9 0 28 -9 41 -20 34 -29 98 -71 125 -81 13 -5 23 -13 23 -19 0
        -5 17 -19 38 -30 55 -32 104 -61 152 -95 24 -16 58 -39 76 -50 37 -23 140 -90
        169 -111 61 -43 126 -84 133 -84 5 0 19 -11 32 -25 13 -14 27 -25 32 -25 4 0
        33 -17 64 -37 31 -21 85 -57 121 -79 35 -23 72 -49 81 -57 9 -9 28 -20 42 -26
        14 -6 45 -27 70 -46 25 -19 59 -41 75 -50 17 -8 50 -31 75 -50 25 -19 54 -39
        66 -44 11 -5 42 -24 68 -42 27 -19 63 -43 81 -54 18 -11 45 -28 59 -37 54 -37
        82 -53 109 -65 15 -7 27 -16 27 -21 0 -10 93 -72 109 -72 6 0 21 -11 33 -25
        12 -14 26 -25 31 -25 5 0 22 -11 39 -25 16 -14 35 -25 42 -25 7 0 25 -10 39
        -22 14 -13 47 -36 74 -52 26 -16 68 -46 93 -66 25 -21 59 -44 75 -53 44 -22
        283 -261 340 -340 28 -37 71 -91 97 -120 26 -28 50 -63 53 -77 4 -13 13 -32
        21 -40 20 -20 64 -89 64 -99 0 -4 13 -28 30 -52 16 -24 30 -51 30 -60 0 -9 7
        -22 15 -29 8 -7 20 -31 27 -54 6 -22 19 -50 29 -61 9 -11 20 -39 24 -62 4 -23
        15 -53 24 -65 10 -13 21 -42 25 -65 3 -23 15 -57 25 -75 10 -18 21 -56 24 -84
        3 -28 14 -66 25 -85 13 -23 22 -62 25 -119 4 -47 14 -110 24 -140 17 -52 18
        -138 13 -1710 -8 -2683 -6 -7468 3 -7565 6 -60 15 -99 27 -116 10 -15 25 -42
        33 -61 19 -45 122 -145 157 -153 15 -3 36 -15 45 -25 10 -11 34 -22 54 -26 20
        -3 58 -12 85 -20 63 -18 119 -18 154 0 15 7 47 16 71 20 74 11 201 122 254
        221 l32 60 5 4635 c3 2549 2 4716 -1 4815 -5 140 -10 189 -24 220 -10 22 -21
        83 -25 135 -5 61 -16 111 -29 140 -11 25 -21 63 -21 85 0 23 -11 60 -25 87
        -14 26 -25 60 -25 75 0 16 -11 49 -25 75 -14 26 -25 57 -25 69 0 12 -11 41
        -24 63 -13 23 -26 56 -29 74 -4 19 -16 45 -27 59 -11 14 -20 35 -20 45 0 11
        -11 33 -25 50 -14 16 -25 39 -25 50 0 11 -11 33 -25 50 -14 16 -25 40 -25 53
        0 12 -7 28 -15 35 -23 19 -75 99 -75 116 0 8 -9 22 -21 32 -11 9 -30 34 -42
        56 -36 64 -40 70 -83 122 -23 27 -47 60 -54 74 -15 29 -15 29 -112 135 -202
        220 -455 455 -491 455 -5 0 -21 12 -36 28 -45 44 -82 72 -96 72 -7 0 -37 20
        -67 44 -29 23 -64 47 -78 51 -14 4 -34 15 -45 24 -34 29 -100 71 -111 71 -6 0
        -19 9 -30 21 -18 20 -48 39 -130 82 -19 9 -34 21 -34 26 0 5 -15 14 -34 21
        -18 6 -42 20 -51 30 -10 11 -23 20 -30 20 -6 0 -22 11 -35 25 -13 14 -28 25
        -35 25 -6 0 -41 21 -78 48 -66 46 -160 108 -223 147 -18 11 -56 36 -86 56 -29
        20 -63 40 -75 44 -13 3 -23 10 -23 14 0 4 -24 23 -52 41 -29 18 -62 39 -73 46
        -11 8 -42 29 -70 47 -27 19 -63 42 -79 53 -79 53 -114 75 -141 89 -16 8 -55
        33 -85 55 -30 22 -60 40 -66 40 -6 0 -21 11 -34 25 -13 14 -28 25 -33 25 -6 0
        -34 17 -64 38 -30 20 -69 46 -87 57 -64 39 -114 74 -120 84 -4 5 -20 12 -36
        16 -16 4 -33 12 -37 19 -7 11 -49 41 -123 89 -14 9 -47 32 -75 52 -27 19 -55
        35 -61 35 -6 0 -17 6 -23 14 -7 8 -42 33 -79 56 -37 23 -92 59 -122 80 -29 22
        -67 44 -82 51 -15 6 -28 15 -28 20 0 8 -27 24 -112 70 -16 8 -33 20 -36 26 -4
        6 -25 20 -47 31 -22 12 -58 35 -80 51 -22 17 -53 36 -70 44 -16 8 -36 21 -44
        30 -7 10 -19 17 -25 17 -7 0 -23 11 -36 25 -13 14 -27 25 -31 25 -9 0 -71 39
        -110 69 -15 11 -37 25 -50 31 -13 5 -44 26 -69 45 -25 19 -55 39 -66 44 -12 5
        -52 30 -89 55 -36 25 -70 46 -74 46 -4 0 -19 9 -32 20 -58 50 -103 80 -119 80
        -9 0 -25 10 -36 21 -10 12 -28 25 -39 30 -11 5 -39 22 -62 37 -103 68 -160
        106 -183 123 -14 10 -38 25 -55 32 -16 8 -36 21 -44 30 -7 10 -19 17 -25 17
        -7 0 -23 11 -36 25 -13 14 -28 25 -33 25 -6 0 -34 17 -64 38 -30 20 -69 46
        -88 57 -18 11 -54 35 -79 53 -26 17 -61 39 -77 48 -17 8 -38 22 -47 30 -46 40
        -81 64 -95 64 -9 0 -28 10 -44 23 -15 13 -50 37 -78 55 -27 17 -59 38 -70 47
        -17 13 -54 36 -126 80 -15 9 -85 55 -153 101 -15 10 -43 28 -61 39 -18 11 -57
        37 -87 58 -30 20 -59 37 -65 37 -5 0 -20 11 -33 25 -13 14 -28 25 -33 25 -5 0
        -22 11 -39 25 -16 14 -36 25 -43 25 -7 0 -24 9 -37 20 -56 48 -102 80 -114 80
        -8 0 -22 8 -32 18 -23 22 -113 82 -125 82 -5 0 -33 20 -61 45 -29 25 -60 45
        -68 45 -8 0 -31 12 -51 28 -20 15 -55 38 -78 52 -23 14 -50 33 -59 43 -18 19
        -57 43 -117 72 -18 8 -33 20 -33 26 0 5 -15 16 -33 24 -19 8 -39 21 -47 29 -7
        9 -18 16 -25 16 -8 0 -27 11 -43 25 -16 13 -40 29 -53 35 -13 5 -44 26 -69 45
        -25 19 -56 40 -70 46 -14 6 -33 18 -43 26 -9 9 -26 21 -36 27 -10 6 -31 20
        -47 30 -16 11 -51 34 -79 53 -27 18 -59 39 -70 47 -82 55 -142 94 -170 111
        -18 11 -52 34 -75 50 -24 17 -58 39 -76 50 -18 11 -57 37 -87 58 -30 20 -59
        37 -64 37 -5 0 -18 9 -27 19 -10 11 -43 35 -73 53 -30 18 -67 43 -83 56 -15
        12 -32 22 -37 22 -6 0 -18 9 -28 20 -10 11 -24 20 -31 20 -7 0 -29 14 -47 30
        -19 17 -39 30 -45 30 -5 0 -15 7 -22 16 -8 8 -27 22 -44 30 -17 7 -56 32 -86
        54 -30 22 -60 40 -66 40 -6 0 -21 11 -34 25 -13 14 -27 25 -32 25 -12 0 -112
        66 -127 84 -7 9 -19 16 -25 16 -6 0 -33 16 -61 35 -27 20 -61 43 -75 52 -23
        15 -99 66 -145 97 -11 7 -45 29 -75 49 -30 20 -77 52 -105 72 -27 19 -55 35
        -61 35 -6 0 -20 11 -32 25 -12 14 -27 25 -33 25 -7 0 -36 17 -66 38 -30 20
        -69 46 -87 57 -18 11 -52 34 -76 50 -24 17 -58 39 -75 50 -18 11 -52 34 -75
        50 -24 17 -58 39 -76 50 -18 11 -57 37 -87 58 -30 20 -58 37 -64 37 -5 0 -20
        11 -33 25 -13 14 -29 25 -35 25 -7 0 -20 9 -29 19 -10 11 -31 23 -48 26 -16 4
        -32 13 -35 21 -3 8 -24 25 -46 37 -81 45 -94 53 -148 93 -30 23 -64 44 -75 48
        -12 4 -29 15 -39 26 -10 11 -26 20 -36 20 -10 0 -30 11 -46 24 -15 13 -39 27
        -53 31 -14 4 -36 16 -49 26 -13 11 -29 19 -35 19 -7 0 -27 11 -46 25 -19 14
        -43 25 -55 25 -12 0 -36 11 -55 25 -19 14 -44 25 -56 25 -12 0 -33 9 -47 21
        -15 11 -44 23 -64 26 -21 4 -50 15 -64 25 -14 11 -46 22 -70 25 -24 3 -60 14
        -79 23 -20 10 -58 21 -85 25 -28 4 -66 15 -85 25 -19 10 -66 21 -104 25 -38 4
        -85 15 -105 25 -25 12 -70 20 -147 24 -61 3 -133 14 -160 23 -41 14 -103 17
        -394 19 -190 1 -354 0 -365 -2z"/>
        <path fill="#4CC9F0" d="M4443 25892 c-20 -13 -33 -60 -33 -121 0 -32 -7 -80 -15 -107 -9 -27
        -18 -96 -21 -154 -3 -60 -14 -131 -25 -165 -10 -33 -21 -105 -25 -160 -3 -60
        -13 -118 -24 -145 -10 -26 -21 -88 -25 -145 -4 -55 -15 -120 -25 -145 -9 -25
        -20 -90 -24 -144 -5 -58 -14 -113 -23 -130 -9 -17 -20 -67 -24 -112 -4 -45
        -14 -96 -24 -113 -9 -18 -20 -67 -25 -110 -5 -45 -18 -96 -29 -117 -12 -21
        -21 -57 -21 -79 0 -22 -9 -58 -21 -79 -11 -21 -23 -61 -26 -90 -3 -28 -14 -65
        -24 -81 -10 -17 -21 -51 -25 -75 -3 -25 -15 -59 -25 -77 -10 -18 -21 -49 -25
        -70 -4 -21 -15 -54 -25 -73 -10 -19 -31 -64 -47 -100 -16 -36 -33 -72 -36 -80
        -4 -8 -19 -36 -34 -61 -15 -25 -37 -64 -50 -87 -12 -23 -26 -42 -31 -42 -5 0
        -15 -15 -21 -34 -21 -64 -301 -346 -344 -346 -7 0 -23 -11 -36 -25 -13 -14
        -29 -25 -35 -25 -7 0 -20 -9 -30 -20 -10 -11 -24 -20 -31 -20 -7 0 -26 -11
        -42 -25 -17 -14 -39 -25 -50 -25 -11 0 -33 -11 -49 -23 -15 -13 -41 -27 -57
        -31 -16 -4 -41 -16 -54 -27 -14 -10 -36 -19 -51 -19 -14 0 -44 -11 -66 -25
        -22 -13 -50 -25 -63 -25 -13 0 -44 -11 -70 -25 -26 -14 -60 -25 -77 -25 -16 0
        -45 -9 -64 -21 -18 -11 -57 -23 -85 -26 -28 -3 -67 -14 -86 -25 -19 -11 -59
        -22 -90 -25 -30 -3 -71 -14 -90 -23 -19 -10 -65 -21 -101 -24 -37 -4 -82 -15
        -100 -25 -19 -10 -65 -21 -103 -24 -38 -4 -80 -14 -94 -23 -16 -11 -62 -20
        -120 -26 -52 -5 -108 -16 -125 -25 -20 -10 -72 -19 -137 -24 -63 -5 -128 -16
        -162 -28 -37 -14 -82 -21 -127 -21 -43 0 -93 -8 -133 -21 -44 -15 -102 -23
        -197 -27 -107 -6 -136 -10 -144 -23 -18 -29 -1 -45 75 -72 49 -17 105 -28 172
        -33 58 -4 116 -14 140 -24 23 -10 75 -21 117 -24 41 -4 97 -15 125 -25 27 -10
        85 -21 129 -24 44 -3 100 -15 125 -25 25 -11 80 -22 123 -26 43 -3 91 -13 108
        -22 17 -8 65 -19 108 -24 42 -4 96 -17 121 -29 26 -12 66 -21 94 -21 31 0 60
        -7 82 -21 21 -13 59 -22 106 -26 48 -4 88 -14 117 -30 24 -12 61 -23 82 -23
        21 0 53 -9 71 -19 18 -10 56 -22 83 -26 28 -4 64 -15 80 -25 17 -10 48 -21 70
        -25 22 -4 54 -15 70 -25 17 -9 46 -20 66 -24 21 -4 48 -15 62 -26 14 -11 36
        -20 49 -20 13 0 39 -11 58 -25 19 -14 43 -25 55 -25 12 0 36 -11 55 -25 19
        -14 41 -25 50 -25 9 0 25 -10 36 -21 10 -12 28 -25 39 -31 53 -24 99 -60 184
        -143 80 -79 161 -182 161 -205 0 -4 7 -14 16 -21 9 -8 25 -32 36 -54 10 -22
        36 -71 58 -110 21 -38 39 -77 39 -86 1 -9 9 -27 20 -40 10 -13 22 -40 26 -59
        4 -19 16 -45 25 -57 10 -13 21 -42 24 -66 4 -23 15 -56 26 -72 11 -17 20 -42
        20 -56 0 -14 11 -47 25 -73 14 -26 25 -64 25 -84 0 -20 11 -59 25 -87 13 -27
        25 -68 25 -90 0 -22 12 -62 25 -90 17 -35 25 -67 25 -107 0 -39 8 -73 25 -110
        18 -38 25 -70 25 -113 0 -41 7 -73 20 -100 14 -27 23 -68 26 -125 3 -47 14
        -107 24 -135 10 -27 22 -93 25 -145 4 -54 15 -114 25 -140 11 -27 21 -84 24
        -145 4 -55 15 -127 25 -160 11 -34 22 -106 25 -166 3 -66 12 -120 23 -145 11
        -25 19 -79 22 -153 5 -101 8 -115 27 -128 31 -20 49 2 58 66 4 28 14 69 22 93
        9 24 18 90 21 148 3 61 13 133 25 170 10 36 22 110 25 165 3 61 12 116 23 141
        10 23 20 82 24 140 4 54 16 126 26 159 10 33 21 97 25 143 4 46 14 100 22 120
        9 20 19 76 23 123 5 52 15 101 27 125 11 21 23 68 26 104 3 36 15 85 26 110
        12 25 21 67 21 95 0 35 8 62 25 90 17 27 25 55 25 86 0 32 7 55 22 74 13 17
        23 47 26 79 2 29 12 60 22 71 10 11 21 36 25 55 4 19 15 51 25 70 10 19 21 51
        25 71 3 21 12 43 20 49 9 7 20 32 26 56 6 24 17 49 25 55 8 6 14 17 14 24 0 7
        11 29 25 49 14 20 27 47 31 60 3 13 17 34 30 47 13 12 24 27 24 31 0 5 24 42
        54 81 73 98 266 284 346 334 36 23 77 51 92 62 14 12 32 21 40 21 8 0 29 11
        48 25 19 14 42 25 53 25 10 0 32 9 47 20 16 11 43 23 62 27 18 3 43 14 56 24
        12 9 42 21 65 24 23 4 53 15 67 25 14 9 50 20 80 24 30 4 68 15 85 25 16 10
        52 21 79 25 27 3 63 14 80 25 17 10 56 21 86 24 31 3 71 14 90 25 19 11 62 22
        95 25 34 3 78 14 100 26 25 13 58 21 88 21 28 0 72 10 107 25 42 18 78 25 122
        25 42 0 78 7 108 21 26 12 82 24 131 29 47 4 103 15 124 24 21 9 73 19 114 23
        42 3 96 14 121 24 25 9 79 20 120 24 41 3 98 12 125 20 28 7 70 16 95 20 71
        10 80 15 80 39 0 36 -17 43 -115 49 -53 3 -115 14 -149 26 -36 13 -84 21 -122
        21 -36 0 -89 9 -126 21 -34 11 -106 24 -159 28 -55 5 -109 16 -128 26 -19 9
        -67 19 -110 22 -42 2 -109 16 -149 29 -40 13 -93 24 -118 24 -25 0 -64 9 -87
        19 -23 10 -76 22 -117 26 -41 4 -88 14 -104 22 -16 8 -60 19 -98 25 -38 5 -83
        17 -101 27 -18 10 -57 21 -88 24 -30 3 -71 15 -90 26 -19 12 -49 21 -67 21
        -18 0 -54 11 -80 25 -26 14 -61 25 -78 25 -17 0 -43 9 -57 21 -15 11 -49 24
        -77 28 -28 4 -58 15 -68 24 -9 8 -36 20 -58 26 -23 6 -47 18 -54 25 -6 8 -25
        18 -41 21 -16 4 -32 11 -35 17 -3 5 -25 18 -48 29 -22 10 -66 37 -96 59 -30
        22 -59 40 -64 40 -16 0 -180 176 -206 220 -14 24 -37 57 -52 73 -15 17 -37 51
        -50 76 -13 25 -33 59 -45 74 -13 16 -23 37 -23 48 0 10 -9 27 -20 36 -11 10
        -23 33 -26 53 -4 19 -14 44 -24 55 -10 11 -21 35 -25 54 -4 19 -18 54 -31 79
        -13 25 -24 55 -24 67 0 12 -9 34 -20 48 -11 14 -20 40 -20 60 0 19 -11 55 -25
        81 -14 26 -25 63 -25 82 0 19 -11 61 -25 94 -14 33 -25 77 -25 99 0 21 -11 63
        -25 93 -17 36 -25 71 -25 108 0 37 -7 68 -21 95 -14 26 -24 69 -29 130 -4 51
        -15 106 -24 123 -9 17 -19 70 -22 119 -4 53 -14 106 -26 133 -13 30 -22 82
        -28 155 -4 61 -14 126 -22 145 -9 19 -18 76 -22 127 -3 51 -14 113 -24 140
        -12 29 -21 87 -25 148 -3 55 -13 120 -23 145 -9 25 -18 89 -21 145 -6 119 -24
        160 -60 137z"/>
        <path fill="#F4C430" d="M15037 25066 c-10 -10 -16 -57 -20 -174 -5 -111 -12 -171 -23 -198
        -10 -24 -19 -89 -24 -171 -5 -74 -16 -152 -25 -180 -9 -26 -20 -104 -25 -173
        -5 -69 -16 -145 -25 -169 -9 -24 -20 -99 -25 -165 -5 -67 -16 -141 -25 -165
        -8 -25 -19 -99 -24 -165 -5 -67 -16 -141 -25 -164 -9 -24 -19 -87 -22 -140 -3
        -54 -15 -131 -25 -173 -10 -42 -23 -130 -28 -196 -4 -66 -14 -129 -20 -141 -6
        -12 -18 -84 -26 -159 -8 -76 -21 -161 -29 -190 -8 -29 -17 -101 -21 -160 -4
        -59 -14 -124 -22 -143 -8 -19 -19 -87 -24 -150 -6 -63 -17 -135 -25 -160 -8
        -25 -19 -96 -25 -159 -6 -63 -19 -151 -29 -195 -11 -45 -20 -111 -20 -148 0
        -38 -8 -93 -20 -130 -11 -34 -22 -106 -26 -158 -3 -52 -15 -126 -25 -165 -11
        -38 -24 -118 -29 -176 -5 -58 -17 -125 -25 -149 -9 -24 -19 -98 -24 -164 -5
        -67 -16 -137 -24 -156 -8 -19 -18 -78 -22 -130 -3 -52 -15 -126 -25 -165 -10
        -38 -22 -106 -25 -150 -3 -44 -15 -109 -25 -145 -10 -36 -21 -94 -25 -130 -3
        -36 -15 -91 -26 -123 -10 -31 -19 -77 -19 -100 0 -24 -9 -70 -20 -103 -12 -32
        -25 -91 -30 -129 -5 -39 -18 -91 -29 -115 -11 -25 -21 -61 -21 -80 0 -19 -10
        -55 -21 -80 -11 -25 -23 -67 -26 -95 -3 -27 -14 -65 -24 -83 -10 -18 -22 -52
        -25 -75 -4 -23 -14 -55 -24 -72 -10 -16 -21 -46 -25 -65 -4 -19 -14 -46 -22
        -58 -8 -13 -21 -45 -29 -72 -8 -26 -21 -53 -29 -60 -8 -7 -15 -23 -15 -35 0
        -12 -11 -39 -25 -59 -14 -20 -25 -43 -25 -50 0 -6 -11 -27 -25 -46 -14 -19
        -25 -37 -25 -42 0 -4 -17 -33 -37 -64 -21 -31 -44 -68 -52 -83 -8 -14 -66 -88
        -130 -164 -121 -145 -285 -294 -410 -372 -9 -5 -29 -20 -44 -32 -16 -13 -34
        -23 -41 -23 -7 0 -21 -9 -30 -19 -10 -11 -29 -22 -43 -26 -15 -3 -38 -15 -51
        -26 -14 -10 -30 -19 -36 -19 -7 0 -27 -11 -46 -25 -19 -14 -43 -25 -54 -25
        -12 0 -39 -11 -61 -25 -22 -13 -48 -25 -58 -25 -10 0 -39 -11 -65 -25 -26 -14
        -58 -25 -72 -25 -14 0 -40 -9 -57 -20 -18 -11 -59 -24 -92 -29 -33 -5 -73 -17
        -89 -25 -17 -9 -57 -19 -89 -22 -32 -4 -78 -15 -103 -24 -25 -10 -77 -21 -115
        -25 -39 -4 -86 -14 -105 -22 -19 -9 -74 -19 -121 -24 -47 -4 -121 -17 -165
        -28 -43 -11 -117 -22 -164 -26 -47 -4 -101 -13 -120 -22 -19 -8 -93 -19 -163
        -24 -70 -5 -143 -16 -163 -24 -19 -8 -89 -19 -156 -25 -67 -6 -148 -17 -181
        -26 -33 -8 -108 -19 -166 -24 -58 -5 -131 -16 -161 -25 -30 -8 -95 -18 -145
        -21 -49 -4 -128 -15 -174 -25 -46 -11 -132 -24 -190 -28 -58 -5 -124 -16 -146
        -24 -22 -8 -92 -17 -155 -21 -63 -4 -144 -15 -180 -26 -36 -10 -108 -21 -160
        -24 -52 -4 -122 -15 -155 -25 -33 -11 -107 -22 -166 -25 -59 -4 -131 -13 -160
        -22 -30 -8 -103 -19 -164 -23 -60 -5 -135 -16 -165 -25 -30 -9 -103 -21 -162
        -26 -59 -5 -134 -16 -167 -25 -33 -8 -116 -20 -183 -25 -68 -5 -148 -17 -178
        -25 -30 -8 -109 -19 -175 -24 -66 -5 -137 -17 -157 -25 -21 -9 -93 -20 -165
        -26 -70 -5 -148 -16 -173 -23 -25 -8 -90 -18 -145 -22 -55 -3 -140 -15 -190
        -25 -49 -10 -130 -22 -180 -25 -49 -4 -117 -15 -150 -25 -33 -10 -108 -21
        -167 -24 -59 -4 -126 -13 -149 -21 -23 -9 -95 -20 -160 -26 -65 -5 -135 -17
        -156 -26 -27 -11 -85 -18 -205 -22 -154 -6 -169 -8 -189 -28 -28 -28 -20 -66
        18 -81 16 -6 100 -14 188 -17 118 -5 175 -12 218 -26 35 -12 100 -22 165 -25
        59 -3 143 -14 187 -24 44 -10 125 -21 180 -24 55 -4 125 -13 155 -21 30 -8
        111 -19 180 -25 69 -6 149 -18 178 -26 29 -9 106 -19 170 -24 64 -5 155 -18
        202 -29 47 -10 131 -22 186 -25 56 -3 121 -13 145 -21 24 -9 101 -20 170 -25
        69 -6 148 -17 175 -25 27 -8 92 -18 144 -21 52 -3 131 -14 175 -25 44 -10 134
        -23 200 -29 66 -5 141 -16 167 -24 26 -8 91 -18 145 -21 54 -4 130 -15 168
        -26 39 -10 113 -21 165 -25 52 -3 129 -14 170 -24 41 -11 122 -22 180 -25 58
        -4 121 -14 140 -22 19 -8 89 -19 155 -24 66 -6 140 -17 165 -25 25 -8 100 -18
        165 -23 66 -6 158 -19 205 -30 47 -12 114 -21 150 -21 36 0 103 -9 150 -21 47
        -11 130 -25 185 -30 55 -4 136 -18 180 -29 44 -11 109 -20 144 -20 36 0 97 -9
        135 -19 39 -11 125 -24 191 -30 66 -5 144 -17 172 -25 29 -8 97 -18 150 -21
        57 -4 117 -14 143 -25 25 -9 81 -21 124 -24 44 -4 104 -16 135 -26 31 -10 83
        -21 116 -25 33 -4 77 -16 97 -26 20 -10 52 -19 70 -19 18 0 54 -11 80 -25 26
        -14 59 -25 73 -25 14 0 47 -11 73 -25 26 -14 55 -25 66 -25 11 0 38 -11 60
        -24 23 -13 54 -26 70 -30 16 -4 41 -16 54 -27 14 -10 32 -19 40 -19 9 0 32
        -10 51 -23 51 -32 71 -44 112 -66 19 -11 41 -27 48 -35 8 -9 19 -16 26 -16 8
        0 27 -11 43 -25 17 -14 33 -25 37 -25 7 0 111 -91 218 -190 33 -30 94 -95 135
        -145 42 -49 87 -100 99 -112 13 -12 23 -28 23 -34 0 -13 40 -78 71 -114 9 -11
        20 -31 24 -44 4 -14 16 -34 26 -45 11 -11 19 -27 19 -36 0 -9 11 -31 25 -50
        14 -19 25 -41 25 -49 0 -9 12 -34 25 -56 14 -22 25 -48 25 -59 0 -10 8 -33 19
        -50 10 -17 22 -49 26 -71 3 -21 15 -55 25 -75 10 -19 21 -55 25 -80 4 -25 15
        -61 25 -80 9 -19 20 -60 24 -91 3 -31 13 -74 22 -95 9 -21 20 -73 25 -115 5
        -42 16 -96 25 -120 9 -24 20 -80 24 -124 5 -44 18 -109 29 -144 12 -35 21 -90
        21 -122 0 -33 9 -85 20 -116 10 -32 24 -103 30 -158 5 -55 16 -124 24 -153 8
        -28 17 -91 21 -140 3 -48 15 -118 25 -157 11 -38 24 -119 29 -180 6 -60 16
        -128 24 -150 8 -22 17 -83 21 -136 3 -53 15 -130 25 -170 10 -41 21 -113 25
        -160 3 -47 13 -106 22 -130 9 -24 20 -93 25 -154 4 -60 15 -132 24 -160 8 -27
        20 -103 25 -167 6 -64 17 -136 26 -160 8 -24 19 -93 24 -154 5 -61 17 -142 28
        -180 11 -38 23 -115 26 -170 3 -56 13 -121 21 -145 9 -24 20 -93 25 -154 5
        -60 16 -135 25 -165 8 -30 19 -107 24 -170 6 -63 16 -134 24 -156 9 -23 18
        -88 22 -145 4 -57 16 -131 25 -164 10 -33 21 -102 25 -154 4 -52 15 -122 25
        -155 10 -34 21 -105 24 -160 3 -54 14 -130 25 -170 10 -39 22 -114 25 -166 4
        -52 13 -120 22 -150 8 -30 19 -104 24 -165 5 -60 16 -130 25 -155 9 -25 20
        -97 25 -160 5 -63 16 -137 24 -165 8 -27 19 -99 25 -160 5 -60 17 -130 26
        -154 10 -30 15 -82 15 -170 1 -176 18 -240 58 -215 36 22 61 132 71 311 7 112
        15 181 26 206 9 22 20 92 25 165 5 70 16 147 25 172 9 25 20 99 25 165 5 66
        16 143 25 170 9 28 20 104 25 170 5 66 16 140 25 165 9 25 20 97 25 160 4 63
        15 134 24 158 8 24 18 91 21 150 4 59 15 136 25 172 10 36 22 110 25 165 4 55
        15 132 25 170 10 39 22 115 25 170 4 55 15 132 25 170 10 39 22 111 26 160 3
        50 13 110 21 135 7 25 18 95 23 155 5 61 18 148 28 195 11 47 23 125 27 173 3
        48 13 107 21 130 8 23 19 92 25 152 5 61 16 133 24 160 9 28 20 100 25 160 5
        61 16 133 25 160 9 28 18 93 21 145 4 52 14 123 25 157 10 35 21 104 25 155 3
        51 15 126 25 167 11 40 22 117 25 170 3 53 14 125 24 161 11 36 22 108 26 160
        3 52 13 111 21 130 8 19 19 87 25 150 5 63 17 131 25 150 8 19 19 79 23 132 5
        54 16 111 25 129 9 17 20 71 25 119 5 49 15 99 24 112 8 12 19 59 25 103 6 44
        19 106 31 137 11 32 20 77 20 100 0 24 9 62 20 86 11 24 22 66 26 95 4 29 15
        66 24 82 10 17 21 48 25 70 4 22 16 54 25 70 10 17 21 47 25 68 4 20 16 48 26
        61 11 13 19 30 19 37 0 26 136 285 190 361 14 19 48 69 77 109 84 118 325 358
        444 441 118 83 173 118 184 118 7 0 20 9 29 19 10 11 31 23 46 26 15 3 36 15
        46 26 9 10 27 19 39 19 11 0 36 11 55 25 19 14 41 25 50 25 8 0 36 11 62 25
        26 14 55 25 65 25 10 0 41 12 68 25 28 14 61 25 75 25 14 0 48 11 75 25 28 13
        66 25 85 25 19 0 55 9 79 20 24 11 75 23 115 26 39 4 93 15 119 26 27 10 83
        21 125 24 43 3 102 14 132 24 32 11 101 21 163 25 60 4 127 13 150 21 23 9 97
        20 165 25 68 6 144 17 170 25 26 8 102 19 168 24 67 6 141 17 165 26 24 8 99
        19 166 24 67 5 150 16 184 25 34 9 113 20 175 25 62 6 133 17 158 25 26 9 99
        20 164 25 64 5 142 16 172 24 30 9 100 18 155 22 55 3 134 14 175 24 41 10
        120 21 175 25 55 4 132 15 170 25 39 10 117 21 175 24 58 4 137 15 175 26 39
        10 119 22 179 25 60 4 128 14 150 21 22 8 99 19 171 25 71 5 150 17 175 25 25
        8 104 20 177 25 72 5 153 16 180 25 26 8 102 19 168 24 66 5 145 17 175 25 30
        9 114 20 185 25 72 5 149 16 172 24 24 8 89 18 145 21 57 4 140 16 185 26 45
        11 137 24 205 29 68 5 143 15 168 23 25 8 95 18 155 22 61 3 142 15 180 25 39
        11 115 22 170 26 55 3 118 13 140 21 23 9 103 18 193 23 95 5 158 12 167 20
        21 18 19 77 -2 89 -10 5 -85 12 -168 16 -82 4 -193 15 -245 25 -52 11 -149 24
        -215 29 -66 6 -136 15 -155 21 -19 6 -102 17 -185 25 -82 8 -171 21 -196 29
        -26 8 -89 17 -140 21 -52 4 -130 15 -174 25 -44 10 -127 21 -185 25 -58 4
        -139 15 -180 25 -41 10 -117 21 -167 24 -51 3 -128 14 -170 25 -43 11 -126 22
        -185 25 -59 4 -126 13 -150 22 -24 8 -98 19 -166 24 -68 5 -147 17 -175 25
        -29 9 -104 20 -167 25 -63 5 -135 16 -160 25 -25 9 -97 20 -160 25 -63 5 -137
        16 -165 25 -27 8 -90 18 -140 21 -49 3 -128 14 -175 24 -47 10 -125 22 -175
        25 -49 4 -122 15 -160 25 -39 10 -115 21 -170 25 -55 3 -131 15 -170 25 -38
        10 -117 21 -174 25 -57 4 -125 13 -150 21 -25 9 -93 19 -151 24 -59 4 -131 15
        -160 24 -30 9 -109 21 -175 27 -65 6 -135 17 -155 26 -19 8 -87 19 -150 23
        -63 5 -133 16 -156 24 -22 8 -81 18 -130 21 -49 4 -122 16 -162 27 -40 10
        -105 21 -145 24 -40 3 -101 14 -137 24 -36 11 -106 24 -156 30 -51 5 -107 16
        -126 24 -18 8 -67 18 -108 21 -41 4 -91 15 -110 25 -19 9 -59 20 -88 23 -29 4
        -68 15 -86 27 -19 11 -47 20 -63 20 -16 0 -47 9 -68 20 -22 12 -62 25 -88 30
        -27 6 -60 19 -74 30 -14 11 -37 20 -50 20 -13 0 -41 11 -61 25 -20 14 -43 25
        -50 25 -12 0 -80 32 -132 62 -8 5 -34 17 -56 28 -23 11 -47 27 -54 35 -7 8
        -18 15 -24 15 -18 0 -172 102 -230 153 -164 140 -216 189 -284 270 -43 50 -84
        98 -92 107 -14 14 -49 63 -93 130 -10 14 -33 49 -52 78 -19 29 -35 55 -35 59
        0 3 -11 21 -25 39 -14 18 -25 39 -25 46 0 8 -11 29 -25 48 -14 19 -25 44 -25
        56 0 12 -7 27 -14 34 -8 6 -20 28 -26 48 -6 20 -19 53 -29 72 -10 19 -22 53
        -26 75 -4 22 -15 54 -26 71 -10 17 -19 42 -19 55 0 13 -11 48 -25 77 -14 30
        -25 68 -25 85 0 18 -9 52 -20 76 -11 23 -25 72 -30 108 -6 36 -18 79 -27 96
        -9 17 -19 64 -24 104 -4 39 -15 86 -24 103 -9 18 -20 66 -25 109 -4 42 -15 92
        -23 111 -9 20 -20 76 -26 125 -5 50 -16 108 -24 130 -8 22 -17 72 -21 110 -4
        39 -16 97 -25 130 -10 33 -22 100 -26 149 -4 49 -14 108 -22 130 -8 23 -18 93
        -24 156 -5 63 -18 148 -28 190 -11 41 -22 116 -25 165 -2 50 -12 110 -21 135
        -9 25 -21 98 -26 162 -5 64 -16 136 -25 160 -8 24 -19 93 -24 154 -5 61 -16
        128 -25 150 -9 21 -20 90 -25 154 -5 63 -16 140 -24 170 -8 30 -20 107 -25
        171 -6 64 -18 135 -26 158 -8 23 -17 90 -21 149 -4 59 -15 132 -24 162 -10 30
        -21 102 -25 160 -4 57 -15 136 -25 175 -10 38 -21 110 -25 160 -4 49 -15 121
        -25 160 -10 38 -21 113 -25 165 -4 52 -13 113 -21 135 -8 22 -19 94 -24 160
        -5 66 -16 140 -25 165 -9 25 -20 95 -25 155 -5 61 -16 132 -24 158 -9 26 -20
        101 -25 166 -6 65 -18 138 -26 162 -9 24 -20 96 -25 159 -6 63 -17 142 -25
        175 -8 33 -17 112 -20 175 -10 211 -14 238 -42 270 -27 33 -44 37 -66 16z"/>
        <path fill="#4CC9F0" d="M25672 13158 c-28 -35 -37 -85 -62 -374 -5 -61 -17 -131 -26 -155 -8
        -24 -18 -89 -21 -144 -3 -59 -13 -119 -23 -146 -10 -25 -21 -88 -25 -140 -4
        -52 -15 -121 -25 -154 -10 -33 -21 -100 -24 -148 -4 -51 -13 -102 -23 -120 -9
        -18 -20 -71 -24 -119 -5 -48 -16 -102 -25 -120 -9 -18 -21 -68 -25 -111 -4
        -43 -15 -90 -24 -103 -8 -13 -20 -55 -24 -92 -5 -37 -18 -87 -30 -112 -11 -25
        -21 -64 -21 -88 0 -27 -7 -53 -20 -70 -12 -16 -23 -51 -26 -82 -4 -30 -15 -69
        -25 -86 -11 -17 -22 -53 -25 -80 -3 -27 -14 -60 -23 -74 -10 -14 -21 -43 -25
        -65 -4 -22 -16 -53 -26 -70 -9 -16 -20 -45 -24 -63 -3 -19 -15 -45 -26 -59
        -11 -14 -20 -36 -20 -49 0 -13 -9 -33 -20 -44 -11 -11 -22 -32 -26 -47 -4 -16
        -15 -37 -24 -48 -10 -11 -21 -31 -25 -45 -4 -14 -19 -39 -34 -56 -14 -18 -33
        -41 -41 -52 -8 -11 -49 -55 -90 -98 -91 -95 -186 -171 -275 -220 -16 -9 -39
        -24 -50 -34 -11 -10 -31 -21 -45 -25 -14 -4 -34 -15 -45 -25 -11 -10 -37 -21
        -57 -24 -21 -4 -42 -15 -47 -25 -6 -11 -26 -20 -50 -24 -22 -3 -52 -14 -67
        -26 -15 -12 -41 -21 -58 -21 -17 0 -49 -12 -71 -25 -23 -14 -55 -25 -76 -25
        -22 0 -48 -9 -69 -25 -24 -17 -47 -25 -76 -25 -27 0 -61 -10 -90 -25 -28 -15
        -63 -25 -88 -25 -23 0 -59 -9 -81 -21 -24 -13 -66 -24 -105 -27 -36 -2 -81
        -13 -101 -23 -20 -10 -68 -21 -105 -25 -38 -4 -85 -15 -104 -24 -19 -9 -69
        -20 -112 -23 -42 -4 -100 -15 -130 -26 -29 -10 -90 -22 -135 -25 -47 -4 -100
        -15 -125 -26 -29 -13 -66 -20 -113 -20 -48 0 -92 -8 -140 -25 -45 -16 -92 -25
        -131 -25 -34 0 -105 -11 -158 -25 -57 -15 -124 -25 -164 -25 -70 0 -92 -10
        -92 -42 0 -23 30 -38 77 -38 21 0 63 -7 93 -15 30 -9 100 -21 155 -29 55 -7
        114 -20 130 -28 17 -9 68 -18 115 -20 57 -4 98 -12 125 -26 25 -13 71 -22 124
        -26 46 -4 97 -14 115 -23 17 -9 67 -20 112 -24 45 -4 96 -15 115 -24 18 -10
        62 -20 98 -23 38 -3 87 -15 116 -28 31 -15 69 -24 99 -24 32 0 60 -7 82 -21
        19 -11 59 -23 91 -26 32 -3 72 -14 89 -24 17 -10 57 -21 90 -25 32 -4 70 -15
        84 -24 14 -10 48 -21 75 -25 28 -4 64 -15 81 -26 17 -10 43 -19 56 -19 14 0
        46 -11 72 -25 26 -14 55 -25 64 -25 9 0 37 -11 62 -24 25 -12 60 -26 78 -29
        19 -4 45 -16 59 -27 14 -11 33 -20 42 -20 10 0 32 -11 51 -25 19 -14 42 -25
        52 -25 11 0 36 -11 56 -25 20 -14 42 -25 48 -25 6 0 19 -9 29 -20 10 -11 27
        -22 39 -26 32 -10 69 -40 181 -149 57 -56 110 -116 119 -135 9 -19 34 -60 56
        -90 22 -30 40 -61 40 -69 0 -7 11 -26 25 -43 14 -16 25 -37 25 -47 0 -10 9
        -26 19 -35 10 -10 24 -37 30 -60 6 -24 17 -49 25 -55 8 -7 18 -27 22 -44 3
        -17 14 -43 24 -57 10 -14 21 -45 24 -69 4 -24 15 -56 25 -70 10 -14 21 -48 25
        -75 3 -27 13 -60 22 -74 8 -13 20 -51 25 -85 6 -34 19 -76 30 -93 11 -19 19
        -49 19 -76 0 -24 9 -61 20 -83 12 -23 24 -74 29 -120 4 -44 16 -95 25 -112 9
        -18 20 -70 25 -115 4 -46 16 -101 25 -123 10 -22 19 -81 23 -135 3 -57 13
        -112 23 -136 10 -24 21 -84 25 -140 4 -55 15 -119 25 -144 10 -26 20 -89 23
        -152 4 -67 14 -125 25 -155 12 -30 22 -88 26 -153 3 -64 14 -126 26 -160 12
        -35 19 -81 20 -128 0 -81 11 -112 40 -112 28 0 37 24 44 132 3 53 13 116 22
        140 8 23 17 88 20 143 4 57 14 125 25 157 11 33 21 101 25 160 3 60 13 126 24
        158 10 30 22 100 26 155 4 55 13 113 21 128 8 16 19 72 25 125 6 54 17 110 25
        126 8 16 19 76 24 134 6 65 17 122 29 150 11 24 20 65 20 91 0 28 10 67 25 99
        14 30 25 69 25 88 0 19 11 61 25 94 14 33 25 73 25 89 0 17 11 51 25 77 14 26
        25 60 25 76 0 16 11 51 25 78 14 27 25 57 25 66 0 9 9 31 19 48 10 17 22 45
        26 63 3 17 13 37 21 43 7 7 19 31 25 54 6 22 17 48 24 56 7 8 16 25 19 36 4
        12 18 34 31 48 14 15 25 35 25 45 0 10 6 24 14 30 8 6 29 37 47 68 83 137 422
        483 474 483 7 0 27 11 43 25 17 14 36 25 44 25 8 0 29 11 48 25 19 14 45 25
        59 25 14 0 35 9 47 21 12 11 41 23 66 26 23 3 57 13 73 23 17 10 48 21 70 25
        22 4 54 15 70 25 17 9 54 20 83 23 29 4 68 15 85 25 18 11 58 22 90 25 31 3
        72 14 90 25 18 11 59 22 95 25 34 3 74 13 88 22 14 9 58 20 97 24 40 5 87 15
        103 24 17 9 66 19 110 23 43 3 99 15 124 26 27 12 82 23 135 27 50 4 104 15
        120 23 17 9 69 19 115 23 47 4 105 15 130 25 26 11 83 21 135 24 50 2 110 12
        135 21 25 9 101 21 170 26 96 7 131 13 150 28 32 24 32 49 -2 74 -22 17 -47
        21 -150 24 -87 3 -141 11 -183 25 -33 11 -103 23 -155 27 -63 5 -104 13 -122
        25 -17 11 -56 19 -114 23 -49 3 -110 14 -136 24 -26 10 -85 22 -130 25 -48 4
        -95 14 -113 24 -16 10 -63 20 -102 24 -40 3 -90 15 -110 25 -21 10 -66 22
        -101 25 -34 4 -81 16 -105 26 -23 11 -60 20 -83 20 -24 0 -60 10 -88 25 -30
        16 -63 25 -92 25 -29 0 -62 9 -92 25 -26 14 -60 25 -77 25 -16 0 -52 12 -80
        25 -27 14 -61 25 -75 25 -14 0 -43 12 -65 25 -22 14 -51 25 -63 25 -13 0 -36
        8 -50 19 -15 10 -40 21 -56 25 -17 4 -41 15 -55 25 -14 10 -37 22 -51 26 -14
        4 -32 13 -40 20 -8 7 -31 21 -50 30 -90 43 -126 66 -188 120 -128 112 -274
        273 -287 315 -4 14 -14 32 -21 40 -37 39 -74 94 -74 110 0 9 -11 29 -25 44
        -14 15 -25 35 -25 45 0 9 -11 32 -25 51 -14 19 -25 44 -25 56 0 12 -9 33 -20
        47 -11 14 -20 32 -20 40 0 8 -11 34 -23 58 -13 24 -27 62 -31 84 -4 22 -16 54
        -26 70 -9 17 -20 51 -23 77 -4 26 -16 62 -27 80 -11 18 -20 49 -20 68 0 19
        -11 59 -25 88 -14 30 -25 72 -25 93 0 22 -11 66 -25 99 -15 35 -25 79 -25 107
        -1 30 -10 67 -25 98 -19 39 -25 66 -25 120 0 52 -5 81 -21 110 -14 28 -23 69
        -28 135 -4 52 -14 109 -23 125 -8 17 -18 68 -22 115 -4 47 -15 112 -26 145
        -10 33 -21 100 -24 149 -4 49 -15 119 -25 155 -11 36 -22 107 -26 157 -3 50
        -14 116 -25 147 -15 41 -20 83 -20 154 0 101 -12 145 -41 151 -9 1 -21 -3 -27
        -10z"/>
        <path fill="#134675" d="M2085 19904 c-16 -9 -43 -23 -58 -31 -35 -19 -123 -104 -155 -151
        -13 -20 -37 -74 -53 -121 l-30 -86 -5 -3095 c-4 -2146 -10 -3334 -20 -3875
        -16 -861 -18 -1912 -4 -1990 5 -27 14 -128 20 -223 8 -133 15 -182 29 -210 10
        -21 21 -69 24 -113 3 -51 12 -86 26 -110 12 -19 21 -47 21 -64 0 -16 11 -54
        25 -83 14 -30 25 -64 25 -77 0 -12 11 -43 25 -69 14 -26 25 -56 25 -67 0 -11
        11 -39 24 -62 13 -23 27 -57 31 -74 4 -18 11 -35 15 -38 5 -3 29 -45 52 -93
        23 -48 52 -102 65 -121 12 -18 34 -57 49 -87 14 -30 30 -54 36 -54 5 0 17 -19
        27 -42 11 -24 45 -74 78 -113 32 -38 76 -97 98 -130 22 -33 127 -148 235 -255
        217 -217 281 -275 325 -297 17 -8 51 -33 77 -54 25 -21 57 -43 70 -49 13 -6
        43 -26 68 -45 25 -19 59 -41 75 -49 17 -8 48 -29 70 -45 22 -17 54 -38 72 -46
        17 -8 34 -19 38 -25 3 -6 23 -20 43 -31 56 -31 104 -61 152 -94 24 -16 58 -39
        76 -50 18 -11 57 -37 87 -58 30 -20 59 -37 64 -37 6 0 16 -7 24 -16 16 -19
        113 -84 126 -84 5 0 20 -11 33 -25 13 -14 27 -25 32 -25 6 0 45 -24 133 -83
        87 -59 141 -95 169 -112 60 -37 161 -103 188 -124 14 -12 31 -21 36 -21 5 0
        16 -7 23 -16 8 -9 33 -25 56 -35 24 -10 43 -22 43 -26 0 -4 23 -21 51 -38 28
        -16 63 -39 77 -51 15 -12 41 -29 57 -38 71 -40 209 -129 250 -161 11 -8 45
        -31 75 -49 30 -19 66 -44 79 -55 13 -12 28 -21 33 -21 5 0 24 -11 42 -25 18
        -14 38 -25 44 -25 6 0 17 -8 24 -19 7 -10 27 -26 43 -35 43 -24 98 -58 131
        -80 76 -51 139 -93 169 -111 18 -11 52 -33 75 -50 24 -16 49 -33 56 -37 8 -5
        20 -11 28 -15 7 -5 32 -21 56 -38 23 -16 57 -39 75 -50 17 -11 51 -33 75 -50
        24 -16 58 -39 76 -50 18 -11 57 -37 87 -58 30 -20 59 -37 64 -37 6 0 16 -7 24
        -16 16 -19 113 -84 126 -84 5 0 20 -11 33 -25 13 -14 28 -25 33 -25 5 0 22
        -11 39 -25 16 -14 35 -25 43 -25 7 0 18 -7 26 -16 7 -8 30 -25 52 -37 67 -37
        77 -43 100 -64 12 -12 33 -24 47 -28 14 -4 34 -15 45 -24 21 -18 34 -27 130
        -91 33 -22 69 -47 80 -55 41 -32 110 -75 121 -75 6 0 17 -7 25 -16 7 -9 27
        -23 45 -32 18 -9 56 -33 86 -53 92 -61 110 -74 127 -84 9 -5 30 -20 48 -32 17
        -13 36 -23 42 -23 5 0 17 -8 27 -17 24 -24 116 -83 129 -83 7 0 22 -11 35 -25
        13 -14 27 -25 32 -25 4 0 33 -17 64 -37 31 -21 71 -47 88 -58 18 -11 52 -33
        76 -50 24 -16 50 -34 59 -40 32 -19 64 -40 85 -55 12 -8 37 -24 55 -35 18 -11
        46 -30 61 -42 15 -13 32 -23 37 -23 5 0 20 -11 33 -25 13 -14 31 -25 40 -25 9
        0 27 -11 40 -25 13 -14 29 -25 36 -25 6 0 17 -7 24 -16 8 -8 27 -22 44 -30 17
        -8 49 -28 71 -44 22 -17 59 -39 83 -50 23 -11 42 -23 42 -28 0 -10 96 -72 111
        -72 5 0 17 -8 27 -18 28 -26 109 -82 120 -82 6 0 21 -9 34 -20 35 -30 112 -80
        124 -80 6 0 21 -11 34 -25 13 -14 27 -25 31 -25 8 0 51 -27 114 -70 17 -12 57
        -39 90 -60 143 -94 181 -121 203 -140 13 -11 30 -20 37 -20 7 0 27 -11 43 -25
        17 -14 34 -25 40 -25 5 0 16 -7 23 -17 8 -9 28 -22 44 -30 17 -7 50 -29 75
        -48 25 -19 59 -41 76 -49 17 -8 35 -19 38 -25 4 -6 26 -21 48 -34 66 -36 78
        -43 101 -64 33 -28 102 -73 113 -73 6 0 21 -11 34 -25 13 -14 27 -25 31 -25 9
        0 92 -50 124 -75 38 -29 93 -63 114 -70 12 -3 26 -15 31 -26 6 -10 16 -19 22
        -19 14 0 110 -64 127 -84 8 -9 21 -16 31 -16 16 0 60 -30 119 -80 13 -11 32
        -20 41 -20 10 0 23 -7 31 -16 11 -13 47 -38 130 -89 9 -6 35 -23 59 -40 24
        -16 58 -39 76 -50 18 -11 57 -37 87 -58 30 -20 59 -37 64 -37 6 0 16 -7 24
        -16 10 -13 50 -40 130 -89 18 -11 47 -31 127 -84 29 -20 67 -43 83 -53 17 -9
        38 -23 48 -32 10 -9 21 -16 25 -16 5 0 24 -13 43 -30 18 -16 40 -30 47 -30 7
        0 21 -9 31 -20 10 -11 22 -20 28 -20 5 0 22 -10 37 -23 15 -12 51 -35 79 -52
        29 -16 63 -40 77 -52 14 -13 31 -23 38 -23 7 0 29 -12 48 -28 49 -38 116 -81
        217 -142 23 -14 69 -46 103 -72 33 -27 66 -48 73 -48 7 0 25 -10 41 -22 34
        -28 89 -62 129 -81 17 -8 36 -21 44 -30 7 -10 22 -17 33 -17 11 0 33 -11 50
        -25 16 -14 35 -25 42 -25 7 0 27 -11 46 -25 19 -14 42 -25 51 -25 10 0 35 -11
        55 -25 20 -14 47 -25 59 -25 12 0 30 -9 39 -19 10 -11 37 -23 59 -27 23 -3 52
        -15 65 -24 12 -10 41 -22 64 -25 23 -4 54 -15 68 -25 14 -10 44 -21 67 -24 23
        -3 57 -15 75 -25 18 -10 56 -21 85 -24 28 -3 69 -15 90 -25 24 -13 67 -21 118
        -24 51 -3 93 -11 115 -23 24 -13 68 -21 145 -26 61 -4 136 -14 168 -24 87 -25
        594 -26 717 -1 47 10 139 21 205 26 79 5 139 15 177 29 32 12 79 21 105 21 27
        0 68 10 93 21 25 11 70 23 100 26 30 4 78 17 105 30 28 12 62 23 76 23 15 0
        37 8 50 19 13 10 45 21 71 25 26 4 57 15 70 25 13 10 38 21 56 24 18 4 45 15
        60 26 15 10 43 22 63 25 21 4 42 13 49 21 6 8 28 19 48 26 20 7 47 20 60 30
        13 10 36 20 51 24 16 3 37 15 47 26 9 10 21 19 27 19 5 0 22 11 39 25 16 14
        37 25 47 25 10 0 26 9 36 20 10 11 27 22 38 26 30 9 127 73 127 83 0 5 12 14
        28 20 38 16 100 55 115 72 6 8 30 26 52 40 76 48 198 132 260 178 22 17 56 39
        76 50 19 11 41 27 48 35 8 9 19 16 27 16 7 0 18 9 23 19 6 10 23 24 38 30 16
        6 46 25 68 41 22 17 51 38 65 47 14 9 49 33 79 52 29 20 79 53 110 73 31 21
        66 46 78 55 41 33 194 137 243 164 15 8 50 34 77 56 26 22 58 43 69 47 12 4
        29 15 39 26 10 11 24 20 30 20 7 0 19 7 26 16 7 9 43 35 79 59 36 24 72 50 79
        59 7 9 19 16 25 16 6 0 36 18 66 39 30 22 82 56 115 77 33 21 82 56 110 77 27
        22 59 43 70 48 11 5 40 25 65 44 25 19 59 42 75 51 17 9 53 36 82 60 28 24 57
        44 63 44 7 0 25 10 40 23 37 28 82 60 145 100 28 18 57 38 65 45 8 7 40 28 70
        47 30 19 62 41 71 49 23 24 103 76 115 76 6 0 21 11 34 25 13 14 29 25 35 25
        7 0 20 9 30 20 10 11 27 22 39 26 11 4 44 26 71 49 28 23 60 46 72 49 13 4 29
        13 36 19 32 30 97 77 106 77 5 0 37 23 70 50 33 28 64 50 68 50 4 0 31 16 58
        35 53 38 76 53 140 94 22 14 50 34 62 44 23 21 35 28 102 65 22 12 41 26 41
        31 0 4 24 23 53 41 72 46 86 55 132 89 22 17 50 35 63 41 13 5 48 30 79 55 30
        25 59 45 65 45 6 0 23 10 38 23 71 55 115 85 173 117 20 11 37 25 37 30 0 5
        15 16 33 24 17 7 55 30 82 50 28 20 77 55 110 77 33 21 85 57 115 79 30 22 60
        40 67 40 7 0 16 7 20 15 5 8 33 31 63 50 67 41 112 73 150 103 15 12 32 22 38
        22 5 0 38 22 72 50 34 27 67 50 72 50 10 0 40 22 102 73 19 15 37 27 41 27 12
        0 110 66 124 84 8 9 18 16 23 16 5 0 35 19 66 43 31 23 68 48 82 55 14 6 43
        26 65 42 22 17 67 48 100 70 33 22 69 47 80 55 78 60 99 75 108 75 5 0 26 14
        46 30 57 48 59 49 88 62 15 7 51 32 79 55 28 24 55 43 59 43 12 0 109 66 124
        84 8 9 18 16 24 16 13 0 117 69 117 78 0 4 24 21 53 37 68 39 173 147 188 193
        7 21 21 49 31 63 17 23 20 43 19 164 0 120 -3 142 -19 164 -10 14 -24 40 -30
        58 -13 39 -157 188 -192 198 -14 4 -32 14 -42 22 -15 13 -97 36 -177 50 -33 5
        -165 -19 -206 -39 -40 -19 -82 -44 -110 -66 -15 -12 -33 -22 -40 -22 -7 0 -18
        -7 -26 -16 -17 -20 -113 -84 -127 -84 -6 0 -15 -6 -19 -13 -4 -8 -33 -30 -63
        -50 -30 -20 -67 -45 -82 -57 -14 -11 -30 -20 -35 -20 -5 0 -20 -11 -33 -25
        -13 -14 -27 -25 -32 -25 -5 0 -37 -20 -71 -45 -59 -44 -112 -79 -251 -170 -34
        -22 -87 -59 -118 -82 -31 -24 -61 -43 -66 -43 -5 0 -23 -12 -40 -27 -53 -48
        -90 -73 -105 -73 -8 0 -21 -7 -28 -16 -8 -9 -28 -26 -45 -38 -17 -11 -64 -43
        -104 -71 -39 -27 -86 -59 -104 -70 -92 -58 -106 -68 -106 -76 0 -5 -17 -16
        -37 -24 -21 -9 -59 -34 -85 -56 -26 -21 -49 -39 -52 -39 -10 0 -114 -69 -121
        -81 -4 -5 -17 -15 -28 -20 -12 -5 -40 -23 -62 -39 -22 -17 -67 -48 -100 -70
        -85 -55 -122 -82 -151 -108 -14 -12 -31 -22 -39 -22 -8 0 -41 -22 -74 -50 -33
        -27 -62 -50 -65 -50 -12 0 -116 -71 -116 -80 0 -5 -9 -12 -21 -15 -28 -9 -119
        -66 -119 -75 0 -4 -25 -23 -56 -41 -30 -19 -83 -55 -116 -82 -33 -26 -66 -47
        -73 -47 -7 0 -41 -23 -75 -50 -34 -28 -67 -50 -72 -50 -9 0 -32 -18 -97 -73
        -14 -12 -26 -19 -110 -65 -22 -12 -41 -26 -41 -31 0 -4 -28 -25 -62 -46 -35
        -21 -87 -58 -116 -82 -30 -24 -59 -43 -66 -43 -7 0 -23 -11 -36 -25 -13 -14
        -28 -25 -33 -25 -5 0 -22 -10 -37 -22 -15 -13 -43 -32 -61 -43 -18 -11 -43
        -27 -54 -35 -11 -8 -36 -24 -54 -35 -18 -11 -57 -39 -87 -62 -29 -24 -56 -43
        -61 -43 -8 0 -85 -53 -113 -78 -8 -7 -42 -31 -75 -52 -33 -22 -80 -56 -105
        -75 -25 -19 -52 -38 -60 -42 -8 -3 -41 -26 -73 -50 -32 -24 -68 -48 -80 -54
        -12 -5 -40 -23 -62 -40 -22 -16 -51 -37 -65 -46 -14 -9 -43 -28 -65 -42 -22
        -14 -42 -29 -43 -34 -5 -11 -107 -77 -119 -77 -6 0 -16 -7 -23 -15 -17 -20
        -97 -74 -127 -86 -13 -5 -23 -12 -23 -17 0 -5 -24 -24 -53 -42 -28 -18 -61
        -39 -72 -46 -11 -8 -47 -32 -80 -54 -80 -52 -120 -80 -153 -107 -15 -13 -32
        -23 -39 -23 -11 0 -37 -20 -96 -72 -16 -16 -34 -28 -39 -28 -5 0 -34 -19 -65
        -42 -63 -48 -94 -70 -138 -94 -16 -9 -54 -37 -83 -61 -30 -23 -58 -43 -64 -43
        -9 0 -46 -28 -101 -75 -10 -9 -28 -20 -41 -25 -13 -5 -49 -29 -80 -54 -30 -25
        -59 -46 -62 -46 -11 0 -109 -67 -123 -84 -8 -9 -19 -16 -26 -16 -6 0 -20 -9
        -30 -20 -10 -11 -24 -20 -31 -20 -7 0 -23 -9 -36 -20 -54 -46 -102 -80 -113
        -80 -6 0 -22 -11 -35 -25 -13 -14 -28 -25 -33 -25 -5 0 -22 -10 -37 -22 -15
        -13 -43 -32 -61 -43 -18 -11 -43 -27 -55 -35 -21 -15 -55 -37 -85 -55 -9 -6
        -41 -26 -71 -46 -30 -20 -64 -39 -75 -43 -11 -4 -28 -15 -38 -26 -10 -11 -26
        -20 -36 -20 -10 0 -31 -11 -47 -25 -17 -14 -39 -25 -50 -25 -11 0 -34 -11 -50
        -25 -17 -14 -41 -25 -54 -25 -13 0 -39 -11 -58 -25 -19 -14 -48 -25 -65 -25
        -17 0 -46 -11 -65 -25 -21 -15 -47 -25 -68 -25 -19 0 -49 -8 -66 -19 -17 -10
        -60 -22 -95 -25 -36 -4 -81 -15 -100 -25 -24 -12 -72 -21 -139 -25 -57 -4
        -114 -11 -126 -16 -88 -33 -467 -37 -625 -5 -40 8 -115 17 -165 21 -50 4 -111
        15 -136 24 -25 10 -71 21 -103 24 -32 4 -76 15 -97 26 -22 11 -54 20 -72 20
        -18 0 -54 11 -80 25 -26 14 -55 25 -65 25 -10 0 -36 12 -58 25 -22 14 -49 25
        -61 25 -11 0 -35 11 -54 25 -19 14 -41 25 -51 25 -9 0 -27 9 -40 19 -14 10
        -40 26 -59 35 -44 21 -112 62 -192 117 -15 11 -33 19 -41 19 -7 0 -24 11 -37
        25 -13 14 -28 25 -33 25 -13 0 -110 65 -126 84 -8 9 -19 16 -25 16 -6 0 -33
        16 -61 35 -27 20 -61 43 -75 52 -14 9 -49 33 -78 52 -30 20 -68 44 -86 53 -18
        9 -38 23 -45 32 -8 9 -19 16 -25 16 -7 0 -23 11 -36 25 -13 14 -32 25 -42 25
        -10 0 -28 11 -40 25 -12 14 -26 25 -31 25 -6 0 -25 11 -43 25 -18 14 -39 25
        -47 25 -8 0 -20 7 -28 16 -16 20 -113 84 -126 84 -6 0 -17 7 -24 16 -13 16
        -62 50 -121 84 -48 28 -153 99 -173 118 -11 10 -31 24 -45 30 -26 13 -72 42
        -163 105 -30 20 -58 37 -64 37 -5 0 -20 11 -33 25 -13 14 -30 25 -38 25 -8 0
        -27 10 -43 23 -73 56 -88 67 -110 77 -13 5 -44 26 -69 45 -25 19 -58 41 -75
        48 -16 8 -36 21 -44 30 -7 10 -19 17 -26 17 -7 0 -18 7 -26 16 -7 9 -27 23
        -45 32 -29 16 -119 74 -189 122 -66 45 -106 70 -115 70 -6 0 -18 8 -28 18 -24
        24 -111 82 -123 82 -5 0 -17 8 -27 17 -20 21 -119 83 -131 83 -4 0 -18 11 -31
        25 -13 14 -27 25 -31 25 -4 0 -35 19 -69 42 -34 24 -73 49 -87 57 -14 7 -44
        27 -67 42 -23 16 -63 44 -91 62 -27 19 -63 42 -79 53 -16 10 -44 28 -62 39
        -18 11 -56 36 -86 55 -29 19 -60 40 -69 45 -33 20 -75 50 -102 72 -16 13 -36
        23 -46 23 -10 0 -27 11 -39 25 -12 14 -28 25 -35 25 -8 0 -22 9 -32 20 -10 11
        -24 20 -31 20 -7 0 -27 13 -44 30 -17 16 -37 30 -44 30 -7 0 -21 9 -31 20 -10
        11 -23 20 -30 20 -6 0 -22 11 -35 25 -13 14 -28 25 -34 25 -11 0 -80 43 -121
        75 -44 33 -111 75 -121 75 -6 0 -18 7 -25 17 -8 9 -27 22 -44 30 -16 8 -48 27
        -70 44 -22 16 -51 37 -65 46 -14 9 -49 33 -79 52 -29 20 -68 45 -87 56 -18 11
        -54 35 -80 54 -27 18 -57 37 -68 42 -12 5 -41 25 -66 44 -25 20 -62 43 -82 52
        -21 9 -38 19 -38 23 0 7 -98 69 -130 83 -8 4 -35 23 -60 42 -25 19 -57 40 -73
        46 -15 6 -32 20 -38 30 -5 10 -15 19 -21 19 -14 0 -110 64 -127 84 -8 9 -17
        16 -22 16 -11 0 -110 62 -131 82 -10 10 -22 18 -28 18 -9 0 -49 25 -115 70
        -45 31 -153 102 -189 125 -18 11 -52 34 -76 50 -24 17 -58 39 -76 50 -18 11
        -57 37 -87 58 -30 20 -59 37 -64 37 -6 0 -16 7 -24 16 -10 13 -52 42 -130 89
        -9 6 -42 27 -73 47 -31 21 -60 38 -65 38 -5 0 -14 7 -22 16 -7 8 -35 30 -63
        48 -76 49 -96 62 -151 101 -27 19 -54 35 -58 35 -5 0 -21 9 -35 21 -48 36
        -117 79 -129 79 -7 0 -17 9 -23 20 -6 11 -16 20 -22 20 -14 0 -110 64 -127 84
        -8 9 -19 16 -25 16 -6 0 -33 16 -61 35 -27 20 -61 43 -75 52 -14 9 -49 33 -78
        52 -30 20 -68 45 -86 56 -68 42 -101 64 -114 75 -7 6 -25 16 -40 23 -15 7 -53
        31 -84 55 -31 23 -61 42 -67 42 -5 0 -20 9 -33 20 -22 20 -53 41 -124 85 -18
        11 -56 36 -86 56 -85 57 -110 73 -127 84 -48 29 -121 78 -156 105 -22 16 -51
        34 -64 40 -13 6 -37 22 -53 35 -16 14 -34 25 -40 25 -6 0 -20 7 -30 17 -10 9
        -27 21 -37 27 -11 6 -47 30 -81 54 -34 23 -65 42 -69 42 -4 0 -18 11 -31 25
        -13 14 -31 25 -41 25 -10 0 -21 5 -24 10 -7 11 -56 45 -120 85 -52 32 -89 58
        -110 76 -11 9 -31 20 -45 24 -14 4 -32 14 -40 21 -31 29 -93 74 -102 74 -6 0
        -22 9 -36 21 -84 64 -106 79 -119 79 -7 0 -37 19 -66 43 -29 23 -67 49 -85 56
        -17 7 -32 17 -32 22 0 8 -29 26 -109 68 -14 7 -35 21 -46 31 -11 10 -35 26
        -54 36 -65 36 -73 42 -114 81 -23 22 -53 46 -67 53 -67 35 -319 280 -369 358
        -35 54 -68 97 -96 124 -18 18 -33 41 -67 108 -7 14 -23 38 -35 53 -13 16 -23
        36 -23 46 0 10 -9 26 -20 36 -11 10 -22 33 -26 51 -3 18 -15 40 -25 50 -10 9
        -19 25 -19 34 0 9 -11 38 -25 64 -14 26 -25 59 -25 74 0 15 -11 48 -25 74 -14
        26 -25 62 -25 80 0 18 -10 53 -21 78 -12 25 -25 80 -29 126 -5 46 -16 96 -27
        115 -17 33 -18 117 -18 2379 0 1290 6 3288 13 4440 14 2074 14 2096 -6 2228
        -12 78 -26 140 -35 150 -8 9 -22 31 -30 47 -24 45 -162 175 -186 175 -7 0 -29
        11 -49 25 -34 23 -45 25 -162 25 -97 0 -132 -4 -155 -16z"/>
    </g>
</svg>